<?xml version="1.0" encoding="UTF-8"?>
<svg id="Layer_1" xmlns="http://www.w3.org/2000/svg" version="1.1" viewBox="0 0 400.6 153.2">
  <!-- Generator: Adobe Illustrator 29.3.1, SVG Export Plug-In . SVG Version: 2.1.0 Build 151)  -->
  <defs>
    <style>
      .st0 {
        fill: none;
      }

      .st0, .st1 {
        stroke: #000;
        stroke-miterlimit: 10;
      }

      .st2, .st1 {
        fill: #fff;
      }

      .st3 {
        fill: #bdcee0;
      }

      .st4 {
        fill: #f15a24;
      }

      .st5 {
        fill: #fbb03b;
      }

      .st6 {
        fill: #cad9ee;
      }
    </style>
  </defs>
  <path class="st1" d="M158.1,68.6c0,17.3-6.4,34.5-18.4,47.1s-6,5.7-9.4,8.1-8,2.7-13.5,2.7h-33.5c-4.4,0-8.8.3-13.2,0s-11.5-6.2-15.5-10.3c-12.3-12.6-18.9-30.1-18.9-47.6,0-9.5,1.9-19,5.7-27.8,1.8-4.2,4-8.2,6.6-11.9,1.9-2.7,5.2-8.3,8.4-9.5s6.2,0,8.5,0h64.3c6.1,0,8.2-.6,12.4,4.1,10.3,11.8,16.6,27.6,16.6,45.1Z"/>
  <path class="st0" d="M55.1,19.8c5,6.6,12.9,7.6,20,7.8,19,.8,35.4,2.6,54.3-.7,2.4-.4,7.7-4.1,9.2-6.4"/>
  <path class="st6" d="M38.5,67.5c14.5,5.7,30.2,7.1,45.7,7.3,7.8.1,15.5,0,23.3-.2,7.7-.2,15.4-.5,23-1.6,8.4-1.1,16.7-3.2,24.5-6.7s.2-3.4-1.5-2.6c-13.7,6.2-28.9,7.4-43.7,7.8-15.2.4-30.5.8-45.6-1-8.4-1-16.8-2.9-24.7-6s-2.6,2.2-.8,2.9h0Z"/>
  <path class="st6" d="M39.4,66.5c.6,6.3,2.7,12.2,5.1,18s4.5,10.4,7.2,15.3,5.7,9,9.8,12.2c4.6,3.7,10.2,5.5,15.9,6.9,12,3,24.7,4.3,36.9,1.4s20.8-8.6,27.4-17.8c3.8-5.2,6.5-11.1,8.9-17,1.3-3.1,2.5-6.1,3.6-9.3s2.1-6.8,1.8-10.4c-.2-1.9-3.2-1.9-3,0,.6,5.8-2.3,11.6-4.5,16.9-2,5-4.1,9.9-6.9,14.4s-6.3,8.8-10.6,12.1-8.8,5.5-13.7,7c-11.2,3.6-23.2,3.1-34.6.7-5.6-1.2-11.5-2.5-16.5-5.4-4.3-2.5-7.6-6.3-10.2-10.4-3.1-4.8-5.4-10.1-7.7-15.4s-5.3-12.6-6-19.4-3.2-1.9-3,0h0Z"/>
  <path class="st6" d="M120.1,90.6c2.4-2.4,4.9-4.5,7.7-6.4l-1.8-2.4c-5.1,6-11.1,11.3-17.7,15.7l1.8,2.4c6.4-7.7,13.8-14.4,22.1-20l-1.8-2.4c-8,8.3-16,16.5-24.1,24.7-1.4,1.4.7,3.5,2.1,2.1,9-8.9,18.5-17.1,28.6-24.8l-1.8-2.4c-9.4,7.9-18.4,16.3-27.1,25s.6,3.3,2.1,2.1c10.3-8.2,20.4-16.7,30.1-25.6l-2.1-2.1c-9.8,9.5-19.6,19-29.4,28.4l2.1,2.1c9.5-9.7,19.6-18.8,30.1-27.3l-2.1-2.1c-8,8.6-16.1,17.2-24.1,25.7-1.3,1.4.8,3.5,2.1,2.1,8.2-8.6,16.3-17.3,25-25.4l-2.1-2.1c-8,9.3-16.2,18.4-24.5,27.4l2.1,2.1c8.4-10.1,16.8-20.3,27.2-28.3l-1.8-2.4c-7.5,9-15,18.1-22.5,27.1l2.1,2.1c7.3-8.9,14.9-17.4,23-25.6l-2.4-1.8c-6.2,8.7-13,17-20.4,24.7l2.4,1.8c5.4-8.9,12.2-16.8,20.2-23.6l-2.4-1.8c-4.2,8.5-10,15.9-15.8,23.3l2.4,1.8c4.4-7.7,9.6-14.9,15.3-21.6l-2.6-1.1c-.2,2.3-1.2,4.3-2.3,6.2s-2.4,4.1-3.6,6.1c-2.5,4.1-5.1,8.1-7.7,12.1l2.6,1.5c1.9-3.7,4-7.4,6.3-10.9s2.2-3.4,3.4-5,2-2.9,3.7-3.2l-1.8-1.8c-1.9,6.4-5,12.4-9.1,17.7l2.4,1.8c3.2-5.7,6.6-11.2,10-16.7s-1.3-3.2-2.4-1.8c-3.2,4.1-6,8.4-8.3,13.1s1.5,3.1,2.6,1.5c2.4-3.4,5-6.6,7.7-9.7l-2.4-1.8c-2.4,5-5.6,9.5-9.4,13.5l2.5,1.5c1.6-5.1,3.5-10.1,5.7-15s2.3-4.7,3.6-7,2.1-4.2,4.1-5.3l-2.2-1.7c-1,4.2-2.9,8-5.7,11.2l2.5,1.5c1.5-6.4,4.4-12.5,8.6-17.6l-2.5-1.5c-1.8,6.5-4.6,12.6-8.4,18.1l2.7,1.2c1.8-6,4.5-11.7,8.1-16.8l-2.7-1.2c-1.1,3.4-3.2,6.4-6.1,8.6l2.2,1.7c.7-3.8,2.4-7.3,5-10.2l-2.4-1.8c-1.4,3.2-3.6,5.9-6.3,8.2l2.5,1.5c1.3-4,3.9-7.6,7.4-10l-2.1-2.1c-1.4,3.2-3.5,5.9-6.5,7.8l2.1,2.1c1.7-3.2,4.1-5.9,7.1-7.9s.1-3.6-1.5-2.6c-3.6,2.3-7.4,4.2-11.4,5.7l1.5,2.5c3.2-3.1,7.1-5.5,11.3-6.9l-1.5-2.5c-6.6,6.1-13.7,11.8-21,17.1l2.1,2.1c4.1-5.9,10.7-9.3,16.9-12.6l-1.8-2.4c-4.7,3.9-10.2,6.9-16,8.9l1.7,2.2c2.9-4.1,7.6-6.9,12.6-7.4s2-3.1,0-3c-8.3.2-16.5.8-24.8,1.7-1.9.2-1.9,2.8,0,3,8.5,1.1,17.1.3,25.2-2.3l-.8-2.9c-9.9,3.3-19.9,6.7-29.8,10l1.2,2.7c8.1-3.7,16.8-5.7,25.4-7.6l-.8-2.9c-7.1,2.5-14.5,4.1-22,4.8l.8,2.8c8.4-3.9,18.4-2.4,26.6-7,1.6-.9.4-3-1.2-2.7-7.1,1.3-14.1,2.7-21.1,4.3l.8,2.9c8.6-2,17.3-3.7,26.1-5.2s1.3-3.1-.4-2.9c-4.1.3-8.2.6-12.3.9l1.1,2.6c1-1.1,2.3-1.7,3.8-1.8l-.8-2.8c-15,6.5-28.1,17-37.7,30.2-1,1.3.9,2.6,2.1,2.1,9.9-4.5,17.1-13.4,27.3-17.1l-1.7-2.2c-6.2,9.9-16.4,16.2-23.9,25-1.1,1.3.3,3.2,1.8,2.4,6.5-3.5,13.4-6.1,20.6-7.7l-1.5-2.5c-4,4.2-8.8,7.6-14.1,10.2l1.5,2.6c5.7-3,11.5-5.8,17.4-8.2l-1.5-2.5c-3.5,3.3-7.2,6.2-11.1,9s-.2,3.6,1.5,2.6c3.7-2.1,7.3-4.3,11-6.4l-1.8-2.4c-3.4,2.6-6.7,5.2-10.1,7.8-1.4,1.1.4,3.2,1.8,2.4,3.2-1.9,6.5-3.9,9.7-5.8s.2-3.3-1.5-2.6c-4.3,1.9-8.4,4.1-12.3,6.7s-.2,3.6,1.5,2.6c4.7-2.8,9.3-5.8,13.8-9.1s.6-3.3-1.2-2.7c-6.7,2.2-12.5,6.3-18.9,9.3s-6.4,2.8-9.8,3.1-1.6.2-1.8-.2c.1.3.2,0,.4-.2.4-.2.7-.4,1.1-.6,1.8-.7,3.8-.9,5.7-1,4.4-.2,8.7.4,13.1-.5,1.6-.3,1.3-3.1-.4-2.9-7.4.8-14.7,2-22,3.7s-1.2,2.8.4,2.9c5.7.6,11.4,0,16.8-1.5s1.1-3.4-.8-2.9c-4.1,1.2-8.2,2.3-12.3,3.5s-1.1,3.3.8,2.9c8.2-1.8,17-4,22.3-11,1-1.3-.9-2.7-2.1-2.1-6.4,3.4-13.1,6.3-20,8.6-1.6.5-1.3,2.8.4,2.9,6.5.6,13.1-1.4,18.3-5.4,1.1-.8.9-2.9-.8-2.8-5.1.2-10.1,2-14.2,5.1s-.6,3.2,1.2,2.7c4-1.1,8.1-2.3,12.1-3.4l-.8-2.9c-3.9,1.5-7.9,3-11.8,4.5-1.8.7-1.1,3.3.8,2.9,5.1-1.1,10.1-3,14.7-5.6s.2-3.4-1.5-2.6c-2.6,1.2-5.4,2.1-8.2,2.8s-3,.6-4.5.8-.6,0-.8,0c-.2,0-.3,0-.5,0-.2,0-.2,0,0,0,.2.2.3.1.4-.2l.3-.3c.2-.3.5-.6.8-.8,3.9-4.3,8.2-8.3,12.9-11.7l-1.8-2.4c-3.7,4.4-8,8.2-12.7,11.4l1.5,2.6c4.2-3,8.4-6,12.6-9s.3-3.4-1.5-2.6c-5.3,2.4-10.5,4.9-15.6,7.6l1.8,2.4c5.2-4.8,10.5-9.6,15.4-14.7,2.4-2.5,4.6-5.1,6.6-7.8s3.9-5.4,3.4-8.9-1.5-1.4-2.2-.9c-4.2,2.7-8.4,5.3-12.6,8s-4.2,2.7-6.3,4-2,1.2-2.9,1.9-1.1.7-1.7,1.1c-.2.1-.4.2-.6.4-.5,0-.4.3.3.7l-.2,1.2c4.8-7.3,12.6-12,19.9-16.4,1.3-.8.7-2.8-.8-2.8-5.6-.2-11.1-.3-16.7-.5l.4,2.9c4-1.1,8-1.7,12.1-2l-.4-2.9c-4.7,1.7-9.6,2.5-14.6,2.4v3c4.3-.2,8.5-.7,12.7-1.4s1.1-3.2-.8-2.9c-9.9,1.4-20,1.2-29.8-.7-1.9-.4-2.7,2.5-.8,2.9,11.5,2.5,23.2,1.7,34.8.9v-3c-12.4,1-24.8.6-37.1-1.2l-.4,2.9c10.4.8,20.7,1.9,31,3.4l.4-2.9c-10.1-.6-20.1-.4-30.2-.8-10.1-.4-20-1.5-29.8-3.9-5.5-1.3-10.9-2.8-16.3-4.3s-2.3.8-1.8,1.8c2.5,6.2,5.6,12,9.5,17.4,1.1,1.6,3.7,0,2.6-1.5-3.6-5.1-6.8-10.5-9.3-16.2s-3-.4-2.7,1.2c1,6.1,2.7,12,5,17.7s3.4,1.1,2.9-.8c-1.4-5.2-3.2-10.2-5.5-15s-3.3-.4-2.7,1.2c3.4,9.3,8.2,17.9,14.3,25.7s3.4-.5,2.4-1.8c-3.8-5.1-7.3-10.3-10.6-15.7s-3.6-.2-2.6,1.5c4.5,7.5,9,15.1,13.5,22.6l2.6-1.5c-3-4.7-6.1-9.4-9.1-14.1-1.1-1.7-3.3-.2-2.6,1.5,3.1,7.2,7.8,13.5,13.7,18.5s3.4-.3,2.4-1.8c-2.6-3.7-5.8-6.9-9.6-9.6s-2.9.8-2.1,2.1c4.6,6.9,11.6,12,19.6,14.1s2.7-2,1.2-2.7c-3.7-1.6-7.5-2.9-11.4-3.7s-2.6,2.2-.8,2.9c8,2.9,16.3,5,24.7,6.3l.8-2.9c-5.2-.8-10.4-1.6-15.6-2.4s-2.7,2.6-.8,2.9c10.6,1.7,21.3,3.5,32.1,3.1s2.1-2.6.4-2.9c-5.9-1.1-11.8-1.5-17.8-.9s-2.1,2.4-.4,2.9c9.6,2.9,19.7,1.9,29.6.7s2-2.9,0-3c-19.2-1.2-42.3-3.2-53.8-21.2-2.8-4.4-4.7-9.4-5.4-14.6l-2.9.8c2.1,8,4.5,16,7,23.9l2.7-1.2c-4.3-8.7-8.6-17.4-12.9-26l-2.6,1.5c4.3,8.5,9,16.7,14,24.8l2.6-1.5c-6.1-8.1-11.4-16.8-15.8-25.9l-2.1,2.1c4.6,2.2,8.5,5.6,11.3,10l2.1-2.1c-4.8-3.6-10-7.7-11.2-13.9l-1.8,1.8c5.4,2,9.8,6.1,12.3,11.3l1.7-2.2c-5.2-2-9.7-5.5-12.8-10.1l-1.7,2.2c7.4,1.7,14.5,4.6,21.5,7.5l.8-2.9c-3.4-1.3-6.9-2.4-10.5-3.4-2.8-.8-6.5-2.3-9.2-.6s-.9,1.9,0,2.6c5.8,4.3,13.4,5.7,20.4,3.9s1.6-2.2.4-2.7c-5.7-2.6-11.3-5.2-17-7.8l-1.2,2.7c12.1,3.9,25.2,7.1,37.7,3.6,1.7-.5,1.3-2.9-.4-2.9-4.8-.3-9.6-.5-14.4-.8s-9.1-.5-13.4-1.9l-.8,2.9c16.6,2.4,33.3,3.6,50.1,3.4s1.9-3,0-3c-8.7,0-17.3,0-26-.1v3c14-.1,28-.2,42-.3s2.1-2.5.4-2.9c-9.4-2.4-19.1-2-28.7-1.5-2,0-1.9,2.8,0,3,8.5.8,17.1,1.5,25.6,1.2,1.9,0,1.9-2.9,0-3-17.9-.7-35.8-1.9-53.6-3.6-1.7-.2-2.1,2.6-.4,2.9,15.4,2.8,30.9,5.3,46.4,7.4v-3c-8.6-.7-17.2-.5-25.7.5-4.2.5-8.3,1.2-12.4,2.1-4.2.9-8.2,2.3-12.4,2.9-.7,0-2.4.6-3,.2s.2-1.7.5-2.2c.9-1.9,2.2-3.5,3.9-4.6l-2.2-1.7c-1.1,4.5-2.9,8.7-5.2,12.7l2.6,1.5c1.6-3.3,3.5-6.5,5.6-9.6s-1.2-3.1-2.4-1.8c-3.1,3.4-6.1,6.7-9.2,10.1l2.4,1.8c2.2-4.4,5.3-8.3,9.3-11.2l-2.2-1.7c-1.7,5.4-4.6,10.3-7.4,15.2s1.1,3,2.4,1.8c4.5-4.4,8.9-8.9,13.4-13.3l-2.4-1.8c-2.7,3.9-5.4,7.9-8.1,11.8s1.2,3.1,2.4,1.8c3.9-4.5,7.8-9,11.6-13.5l-2.4-1.8c-2.7,5.3-5.8,10.3-9.5,14.9l2.4,1.8c2-3.8,3.4-7.8,4.2-12s-.7-2.2-1.8-1.8c-2.9.9-5.7,2.2-8.2,3.9s-.6,3.2,1.2,2.7c11.6-3.2,23.4-5.7,35.2-7.4,1.7-.2,1.3-3-.4-2.9-10.3.5-20.6,1.1-30.9,2s-2,3.1,0,3c10.4-.4,20.8-.7,31.2-1.1l-.4-2.9c-5.3,1-10.6,1.7-16,2.1s-1.9,3.2,0,3c5.6-.5,11.3-1.2,16.8-2.3s1.3-3-.4-2.9c-10.4.4-20.8.7-31.2,1.1v3c10.3-.9,20.6-1.5,30.9-2l-.4-2.9c-11.9,1.7-23.7,4.2-35.2,7.4l1.2,2.7c2.3-1.6,4.8-2.8,7.5-3.6l-1.8-1.8c-.7,3.9-2,7.7-3.9,11.2s1.2,3.2,2.4,1.8c3.9-4.8,7.2-10,10-15.5.7-1.4-1.2-3.2-2.4-1.8-3.9,4.5-7.8,9-11.6,13.5l2.4,1.8c2.7-3.9,5.4-7.9,8.1-11.8s-1.2-3-2.4-1.8c-4.5,4.4-8.9,8.9-13.4,13.3l2.4,1.8c2.9-5.1,5.8-10.3,7.7-15.9s-1.1-2.5-2.2-1.7c-4.4,3.2-7.9,7.4-10.3,12.3s1.1,3.2,2.4,1.8c3.1-3.4,6.1-6.7,9.2-10.1l-2.4-1.8c-2.1,3.1-4,6.2-5.6,9.6s1.6,3.2,2.6,1.5c2.5-4.2,4.3-8.7,5.5-13.4s-1.1-2.5-2.2-1.7c-1.7,1.2-3.1,2.6-4.2,4.3s-2.1,3.8-1.7,5.6,2.2,2.5,4,2.4,4.8-.6,7.1-1.2c4.8-1.2,9.5-2.4,14.4-3.2s9.7-1.3,14.6-1.5,11.1-.2,16.7.3c2,.2,1.9-2.8,0-3-15.3-2-30.5-4.5-45.6-7.3l-.4,2.9c17.8,1.8,35.7,3,53.6,3.6v-3c-8.6.3-17.1-.5-25.6-1.2v3c9.3-.5,18.8-.9,27.9,1.4l.4-2.9c-14,.1-28,.2-42,.3-1.9,0-1.9,3,0,3,8.7,0,17.3,0,26,.1v-3c-16.5.2-33-.9-49.3-3.3-1.9-.3-2.7,2.3-.8,2.9,4.4,1.4,9.1,1.7,13.7,2,5,.3,9.9.5,14.9.8l-.4-2.9c-12.1,3.4-24.6.2-36.2-3.6-1.6-.5-2.7,2-1.2,2.7,5.7,2.6,11.3,5.2,17,7.8l.4-2.7c-6.3,1.6-12.9.2-18.1-3.6v2.6c1.1-.7,2.5-.2,3.7,0s3.1.8,4.6,1.2c3.1.9,6.1,1.9,9.1,3s2.5-2.2.8-2.9c-7-2.9-14.1-5.8-21.5-7.5-1.2-.3-2.5,1.1-1.7,2.2,3.6,5.3,8.6,9.2,14.6,11.5,1.3.5,2.2-1.1,1.7-2.2-2.8-5.9-8-10.4-14.1-12.7s-2,.8-1.8,1.8c1.3,7,7.2,11.6,12.6,15.7,1.2.9,2.8-.8,2.1-2.1-3-4.7-7.3-8.6-12.3-11-1.4-.7-2.7.7-2.1,2.1,4.5,9.1,9.7,17.8,15.8,25.9s3.6.2,2.6-1.5c-5-8-9.7-16.3-14-24.8-.9-1.7-3.4-.2-2.6,1.5,4.3,8.7,8.6,17.4,12.9,26s3.2.5,2.7-1.2c-2.5-7.9-4.9-15.9-7-23.9s-3.2-1.1-2.9.8c1.4,9.7,6.6,18.7,14.3,24.8,8.1,6.4,18.2,9.7,28.3,11.3,6.5,1,13,1.5,19.5,1.9v-3c-9.5,1.1-19.4,2.2-28.8-.6l-.4,2.9c5.7-.6,11.4-.3,17,.8l.4-2.9c-10.5.3-20.9-1.3-31.3-3l-.8,2.9c5.2.8,10.4,1.6,15.6,2.4s2.7-2.6.8-2.9c-8.4-1.3-16.7-3.4-24.7-6.3l-.8,2.9c3.7.8,7.3,1.9,10.7,3.4l1.2-2.7c-7.3-2-13.6-6.5-17.8-12.8l-2.1,2.1c3.3,2.3,6.2,5.2,8.5,8.5l2.4-1.8c-5.8-4.9-10.3-11-13.3-17.9l-2.6,1.5c3,4.7,6.1,9.4,9.1,14.1s3.6.2,2.6-1.5c-4.5-7.5-9-15.1-13.5-22.6l-2.6,1.5c3.3,5.4,6.9,10.6,10.6,15.7l2.4-1.8c-5.7-7.4-10.3-15.7-13.5-24.4l-2.7,1.2c2.2,4.6,3.9,9.4,5.2,14.3l2.9-.8c-2.3-5.7-4-11.6-5-17.7l-2.7,1.2c2.6,5.7,5.7,11.1,9.3,16.2l2.6-1.5c-3.7-5.2-6.8-10.7-9.2-16.6l-1.8,1.8c9.7,2.7,19.5,5.5,29.5,6.9,10,1.4,20.1,1.5,30.3,1.7s11.5.2,17.3.5c1.7,0,2.1-2.7.4-2.9-10.5-1.5-21.1-2.7-31.8-3.5-1.7-.1-2.1,2.7-.4,2.9,12.6,1.9,25.3,2.3,37.9,1.3s1.9-3.1,0-3c-11.3.8-22.9,1.7-34-.8l-.8,2.9c10.4,2,20.9,2.2,31.4.7l-.8-2.9c-3.9.7-7.9,1.1-11.9,1.3s-1.9,3,0,3c5.3.1,10.5-.7,15.4-2.5s1.4-3.1-.4-2.9c-4.4.3-8.7,1-12.9,2.1s-1.3,2.9.4,2.9c5.6.2,11.1.3,16.7.5l-.8-2.8c-6.5,3.9-13.1,7.9-18.1,13.6s-1.2,1.4-1.8,2.2-1.4,1.5-1.4,2.4c0,1.8,2,2.3,3.4,1.8s1.8-1,2.6-1.5,2-1.2,2.9-1.9c2-1.2,3.9-2.5,5.9-3.7,4.5-2.8,9-5.7,13.5-8.5l-2.2-.9c.2,1.5-.6,3-1.4,4.2s-1.8,2.6-2.8,3.8c-2,2.5-4.1,4.8-6.3,7-4.5,4.7-9.4,9-14.1,13.4s.3,3.1,1.8,2.4c5.1-2.7,10.4-5.2,15.6-7.6l-1.5-2.6c-4.2,3-8.4,6-12.6,9s-.1,3.7,1.5,2.6c5-3.4,9.5-7.3,13.3-11.9s-.4-3.4-1.8-2.4c-3,2.2-5.9,4.6-8.6,7.2-1.4,1.3-2.7,2.6-4,4s-2.8,2.6-3.1,4.2.7,2.9,2.2,3.2,3.8-.3,5.4-.6c3.7-.7,7.3-2,10.7-3.5l-1.5-2.6c-4.4,2.4-9.1,4.2-14,5.3l.8,2.9c3.9-1.5,7.9-3,11.8-4.5s1.1-3.4-.8-2.9c-4,1.1-8.1,2.3-12.1,3.4l1.2,2.7c3.7-2.8,8-4.5,12.7-4.7l-.8-2.8c-4.8,3.7-10.7,5.5-16.8,5l.4,2.9c7.1-2.4,14.1-5.3,20.7-8.9l-2.1-2.1c-4.8,6.3-13.3,8.1-20.5,9.6l.8,2.9c4.1-1.2,8.2-2.3,12.3-3.5l-.8-2.9c-5.2,1.5-10.6,2-16.1,1.4l.4,2.9c7-1.7,14.1-2.9,21.2-3.6l-.4-2.9c-4.5.9-9.1,0-13.6.4s-10.6,1.4-8.6,5.9c1.5,3.5,7.6,1.5,10.1.6,3.9-1.3,7.5-3.2,11-5.2,4.1-2.3,8.2-4.7,12.7-6.1l-1.2-2.7c-4.4,3.3-9,6.3-13.8,9.1l1.5,2.6c3.9-2.6,8-4.9,12.3-6.7l-1.5-2.6c-3.2,1.9-6.5,3.9-9.7,5.8l1.8,2.4c3.4-2.6,6.7-5.2,10.1-7.8s-.4-3.2-1.8-2.4c-3.7,2.1-7.3,4.3-11,6.4l1.5,2.6c4.1-2.8,8.1-6,11.7-9.4s0-3.1-1.5-2.5c-6.2,2.5-12.2,5.3-18.1,8.5s-.2,3.4,1.5,2.6c5.5-2.6,10.5-6.2,14.7-10.6,1.1-1.1,0-2.8-1.5-2.5-7.4,1.7-14.6,4.4-21.3,8l1.8,2.4c7.7-9,18-15.5,24.3-25.6s-.5-2.7-1.7-2.2c-10.5,3.9-17.9,12.8-28,17.4l2.1,2.1c9.3-12.8,22.1-22.9,36.6-29.1,1.4-.6.7-2.9-.8-2.8-2.3.1-4.3,1-5.9,2.7s-.3,2.7,1.1,2.6c4.1-.3,8.2-.6,12.3-.9l-.4-2.9c-8.7,1.5-17.4,3.2-26.1,5.2-1.9.4-1.1,3.3.8,2.9,7-1.6,14-3,21.1-4.3l-1.2-2.7c-8.1,4.6-18.2,3.1-26.6,7s-.7,2.9.8,2.8c7.8-.7,15.4-2.4,22.8-4.9s1.1-3.3-.8-2.9c-8.9,2-17.8,4.1-26.1,7.9s-.4,3.3,1.2,2.7c9.9-3.3,19.9-6.7,29.8-10,1.8-.6,1.1-3.5-.8-2.9-7.9,2.5-16.2,3.2-24.4,2.2v3c8.2-.9,16.5-1.4,24.8-1.7v-3c-6.2.7-11.6,3.8-15.2,8.9s.5,2.6,1.7,2.2c6.3-2.2,12.1-5.4,17.3-9.7,1.4-1.1-.4-3.1-1.8-2.4-6.7,3.5-13.6,7.3-18,13.7s.8,2.9,2.1,2.1c7.5-5.4,14.8-11.3,21.6-17.6,1.1-1,0-3-1.5-2.5-4.7,1.6-9,4.2-12.6,7.7s0,3,1.5,2.5c4.2-1.5,8.3-3.5,12.1-6l-1.5-2.6c-3.4,2.3-6.2,5.3-8.2,9s.7,2.9,2.1,2.1c3.3-2.2,6-5.2,7.5-8.9s-.7-3-2.1-2.1c-4.1,2.9-7.2,7-8.8,11.8s1.4,2.3,2.5,1.5c2.9-2.3,5.2-5.3,6.8-8.8s-1.1-3.2-2.4-1.8c-3,3.2-5,7.2-5.8,11.5s1.1,2.6,2.2,1.7c3.5-2.7,6-6.2,7.5-10.3s-1.8-2.5-2.7-1.2c-3.7,5.4-6.5,11.3-8.4,17.5s1.8,2.5,2.7,1.2c3.9-5.7,6.9-12.1,8.7-18.8s-1.5-2.7-2.5-1.5c-4.5,5.5-7.7,12-9.3,18.9-.3,1.4,1.5,2.7,2.5,1.5,3.1-3.6,5.4-7.9,6.5-12.6s-1-2.3-2.2-1.7c-2.1,1.1-3.4,3.1-4.5,5.1s-2.8,5.2-4,7.8c-2.5,5.2-4.5,10.6-6.2,16.1-.4,1.4,1.5,2.5,2.5,1.5,4.1-4.1,7.4-8.9,9.9-14.1s-1.1-3.2-2.4-1.8c-3,3.2-5.7,6.7-8.2,10.3l2.6,1.5c2.2-4.4,4.8-8.6,7.8-12.5l-2.4-1.8c-3.5,5.5-6.8,11.1-10,16.7s1.3,3.2,2.4,1.8c4.5-5.7,7.8-12.1,9.9-19,.3-1.2-.8-2.1-1.8-1.8-1.8.4-3.2,1.6-4.3,3s-2.6,3.6-3.8,5.4c-2.5,3.9-4.9,7.9-7,12.1s1.5,3.1,2.6,1.5c2.8-4.3,5.6-8.6,8.2-12.9s5.4-8.2,5.8-13-1.7-2-2.6-1.1c-5.9,6.9-11.2,14.3-15.8,22.2-.8,1.4,1.3,3.2,2.4,1.8,6-7.6,12-15.2,16.3-23.9.8-1.6-1-2.9-2.4-1.8-8.1,6.9-15.1,15.1-20.7,24.2s1.2,3.1,2.4,1.8c7.5-8,14.5-16.4,20.8-25.3s-1.2-3-2.4-1.8c-8.1,8.2-15.7,16.7-23,25.6s.9,3.6,2.1,2.1c7.5-9,15-18.1,22.5-27.1,1-1.2-.4-3.5-1.8-2.4-10.7,8.2-19.3,18.5-27.8,28.8-1.2,1.5.8,3.6,2.1,2.1,8.3-9,16.5-18.1,24.5-27.4,1.3-1.5-.7-3.5-2.1-2.1-8.7,8.1-16.9,16.8-25,25.4l2.1,2.1c8-8.6,16.1-17.2,24.1-25.7s-.6-3.3-2.1-2.1c-10.5,8.5-20.6,17.6-30.1,27.3s.7,3.5,2.1,2.1c9.8-9.5,19.6-19,29.4-28.4s-.7-3.4-2.1-2.1c-9.8,8.8-19.8,17.4-30.1,25.6l2.1,2.1c8.6-8.8,17.7-17.1,27.1-25,1.3-1.1-.5-3.4-1.8-2.4-10.3,7.8-20,16.2-29.2,25.2l2.1,2.1c8.1-8.2,16.1-16.4,24.1-24.7s-.4-3.3-1.8-2.4c-8.5,5.7-16.2,12.6-22.7,20.4-1,1.2.3,3.4,1.8,2.4,6.8-4.5,13-10,18.3-16.2s-.3-3.4-1.8-2.4c-3,2-5.8,4.3-8.3,6.8s.8,3.5,2.1,2.1h0Z"/>
  <path class="st6" d="M77.6,104.6c1.9,0,1.9-3,0-3s-1.9,3,0,3h0Z"/>
  <path class="st6" d="M95.7,95.9c1.9,0,1.9-3,0-3s-1.9,3,0,3h0Z"/>
  <path class="st6" d="M97.1,95.3l1.2-.5-1.8-1.8c-.7,3.2-1.9,6.6-1.5,9.9s.8,4.2,3.1,3.7,3-1.5,4.1-2.6-.8-3.5-2.1-2.1-.7.7-1.1,1-.5.3-.8.5-.5.2-.6.3c-.2,0-.1.1.3.2.3,0,.4,0,.4.2,0,0,0-.3-.1-.3,0-.3-.1-.6-.2-.8,0-.6,0-1.2,0-1.7,0-2.5.9-5,1.4-7.4s-.7-2.3-1.8-1.8l-1.2.5c-.8.3-1.3,1-1,1.8s1.1,1.4,1.8,1h0Z"/>
  <path class="st6" d="M100,102.9c.8-5,2.3-9.8,4.7-14.2s-1.1-3-2.4-1.8c-4.8,4.8-9,10.2-12.4,16.1s1.5,3.1,2.6,1.5c4.7-6.6,9.5-13.2,15.1-19.1l-2.4-1.8c-5.5,9.9-11,19.9-16.4,29.8s1.6,3.2,2.6,1.5c6.2-10.9,12.5-21.9,21.4-30.9l-2.4-1.8c-6.9,10.1-13.9,20.2-19.6,31s1.5,3.1,2.6,1.5c7.4-10.8,14.4-22,23.7-31.2l-2.4-1.8c-7.2,9.9-14.4,19.8-20.2,30.7-.9,1.7,1.6,3.2,2.6,1.5,5.4-9.3,10.9-18.7,19.1-25.7l-2.4-1.8c-6,8.3-12,16.7-17.2,25.6-.7,1.2.8,3,2.1,2.1,6.8-5,10.7-12.9,17.5-17.8l-1.8-2.4c-5.4,6.7-10.6,13.5-15.6,20.5-1,1.4,1.2,2.9,2.4,1.8,4.5-4.2,8.9-8.4,13.4-12.7l-2.1-2.1c-3.8,3.8-7.6,7.6-11.3,11.4s.4,3.4,1.8,2.4c3.7-2.8,7.6-5.4,11.7-7.8l-2.1-2.1c-.8,1.1-1.8,2-2.9,2.7s-1.7.7-1.8.9l.7.6v-.2c.1-.2.2-1,.3-1.2.7-2.9,2.2-5.6,3.6-8.2,2.9-5.3,6.4-10.3,9.9-15.3s-.2-2.3-1.3-2.3c-5.2.2-9.8,3.7-14,6.5s-8.8,6.4-13.1,9.8l2.4,1.8c4.9-8.3,12.7-14.8,21.8-18.2l-1.5-2.5c-7.9,7.7-15.7,15.4-23.6,23l2.4,1.8c2.8-4.6,5.9-8.9,9.5-13s7.2-8,11.8-10.5l-1.8-2.4c-9.9,11.4-19.7,22.8-29.6,34.3l2.5,1.5c3-8.3,7.7-16,13.8-22.5l-2.1-2.1c-6.3,7.7-12.1,15.7-17.5,24s1.5,3.1,2.6,1.5c7.3-11.2,14.7-22.5,24.9-31.3l-2.1-2.1c-9.9,11.1-19.1,22.8-27.4,35.1l2.6,1.5c5.7-13.4,15-24.9,24.3-35.9,1.2-1.5-.7-3.5-2.1-2.1-10.2,9.8-19.2,20.8-28.1,31.7l2.5,1.5c1-3.3,2.8-6.1,4.8-8.9,2-2.8,4.1-5.5,6.4-8.1,4.3-5.2,9.1-10.1,14.5-14.1l-1.8-2.4c-5.2,4.5-10.2,9.3-14.8,14.4s-8.8,10.4-13.9,15l2.4,1.8c7.2-12,16.5-22.6,27.4-31.4l-2.1-2.1c-4.9,5.2-9.8,10.4-14.7,15.7l-7.2,7.6c-2.2,2.4-4.5,4.9-7.1,6.9l2.2.9c-.5-2.1.3-4.1,1-6.1s1.5-4,2.2-5.9c1.6-4.1,3.3-8.2,5.1-12.2s-.3-2.7-1.7-2.2c-3.4,1.1-5.9,3.6-8.3,6.1s-2.9,2.9-4.3,4.4-1.4,1.4-2.1,2.1-.7.7-1,1.1c-.2.2-.5.5-.7.7-.4.2-.3.4.2.5l.4,1.1c.8-6.2,2.7-12.3,5.7-17.8l-2.1.5c3.6,2.4,8.3,2.9,12.3,1.3,1.2-.5,1.7-2.7,0-2.9-4.9-.7-9.7-1.4-14.6-2.1-1.9-.3-2.7,2.6-.8,2.9,6.3,1,12.7,2.1,19,3.1v-2.9c-7.3,1.1-14.5-3.3-21.9-1.4s-2.3,13.2,1,17.5c2.7,3.5,5.7,6.6,9.2,9.3s3.5-.7,2.1-2.1c-4.7-4.6-10.7-7.9-17.1-9.5s-2.4,1-1.7,2.2c2.6,4.4,6.6,7.6,10.9,10.2s9.9,5.5,15.4,4.7,1.2-2.8-.4-2.9c-4-.3-7.9-.6-11.8-1.1s-7.7-.6-11.1-1.9l-.8,2.9c9.4,1.6,18.2,6.1,27.8,6s2.1-2.5.4-2.9c-8.2-2.2-16.4-4.1-24.7-5.6s-2.5,1.7-1.2,2.7c8.2,5.9,18.8,8,28.7,5.8s1.3-2.5,0-2.9c-6.2-2-12.8-2.1-18.9-4.1-4.7-1.6-9.6-4.6-11.1-9.6l-1.4,1.9c.9,0,1.7.8,2.4,1.3s1.3,1,1.9,1.5c1.3,1.1,2.6,2.4,3.8,3.6,2.5,2.4,5.1,4.7,8.1,6.4s2.7-.7,2.1-2.1c-4.2-9-11.2-16.6-19.9-21.5s-2.8,1.1-1.8,2.4c3.1,3.8,6.3,7.5,9.8,10.9s6.7,6.8,10.9,8.6,2.1-.8,1.8-1.8c-1.2-4-4-7.4-6.5-10.7-2.6-3.4-5.4-6.6-8.3-9.7s-3.1,0-2.5,1.5c3.2,7.7,7.8,14.6,13.8,20.3s2.3.5,2.5-.7c.8-3.8-1.2-7-2.8-10.2s-3.1-7-4.2-10.6-2.6-1.5-2.9,0c-.4,2.4-.5,4.8-.2,7.2s1.9,2.1,2.8.8c3.2-5,6.4-10.1,9.5-15.2l-2.6-1.5c-2.9,5.5-6,10.9-9.3,16.2l2.7,1.2c1.2-4.9,3-9.7,5.3-14.2l-2.7-1.2c-1.3,5.1-2.7,10.3-4,15.4s1.1,2.3,2.2,1.7c2.7-1.4,4.4-4.1,6.1-6.5s4.1-5.7,6.1-8.5-1.5-3.1-2.6-1.5c-3.4,4.8-6.3,9.9-8.7,15.2-.8,1.7,1.5,3.1,2.6,1.5,3.7-5.4,7.4-10.7,11-16.1l-2.6-1.5c-3.2,6.2-6.4,12.5-9.6,18.7-.9,1.7,1.5,3.1,2.6,1.5,5-6.8,9.9-13.5,14.9-20.3l-2.6-1.5c-4,7-8,14-12,20.9s1.2,3.1,2.4,1.8c6-6.9,11.9-13.7,17.9-20.6l-2.4-1.8c-4,6.7-8,13.4-12,20.2s1.5,3,2.6,1.5c4.3-5.7,8.2-11.7,11.7-17.9s-1.1-2.9-2.4-1.8c-6.1,5.4-11,11.9-15.8,18.5l2.6,1.5c4.4-6.5,9.1-12.8,13.9-18.9s-.6-3.3-2.1-2.1c-4.5,3.6-8.4,8-11.5,12.9-.9,1.5,1.1,2.9,2.4,1.8,4.1-3.7,8.1-7.5,12-11.4s-.6-3.3-2.1-2.1c-4.5,3.6-8.6,7.7-12.2,12.3l2.4,1.8c3.5-5.1,7.4-9.8,11.8-14.1l-2.4-1.8c-4.1,9-8.8,17.8-13.5,26.6s1.6,3.2,2.6,1.5c2.2-3.8,4.6-7.5,7.1-11.1,2.3-3.2,4.6-6.9,8-9l-2.1-2.1c-3.4,7.1-7.1,14-11,20.8s1.3,3.2,2.4,1.8c8.2-10.3,16.7-20.6,27.1-28.8l-2.1-2.1c-7.4,7.2-15,14.4-22.5,21.5l2.1,2.1c8.6-10.4,20.5-17.6,33.8-20,1.7-.3,1.3-3-.4-2.9-15.6.7-31.2,1.3-46.7,2-1.8,0-1.9,2.3-.4,2.9,8.9,3.5,18.9,4.1,28.2,1.7s1.1-3.4-.8-2.9c-8.8,2.3-18.1,1.6-26.6-1.7l-.4,2.9c15.6-.7,31.2-1.3,46.7-2l-.4-2.9c-13.7,2.5-26.3,10.1-35.1,20.8-1.2,1.5.7,3.5,2.1,2.1,7.6-7.1,15.1-14.3,22.5-21.5s-.6-3.3-2.1-2.1c-10.4,8.2-18.9,18.5-27.1,28.8l2.4,1.8c4-6.8,7.6-13.7,11-20.8.6-1.3-.7-2.9-2.1-2.1-3.6,2.3-6.1,5.9-8.5,9.4s-5.3,7.8-7.6,11.8l2.6,1.5c4.7-8.8,9.4-17.5,13.5-26.6s-1.1-3.1-2.4-1.8c-4.5,4.5-8.6,9.4-12.2,14.7s1.3,3.2,2.4,1.8c3.6-4.5,7.7-8.6,12.2-12.3l-2.1-2.1c-3.9,3.9-7.9,7.7-12,11.4l2.4,1.8c3-4.7,6.7-8.8,11.1-12.3l-2.1-2.1c-5,6.3-9.8,12.8-14.4,19.5s1.5,3,2.6,1.5c4.6-6.3,9.4-12.7,15.3-17.9l-2.4-1.8c-3.4,6.3-7.3,12.2-11.7,17.9l2.6,1.5c4-6.7,8-13.4,12-20.2s-1.2-3.1-2.4-1.8c-6,6.9-11.9,13.7-17.9,20.6l2.4,1.8c4-7,8-14,12-20.9,1-1.7-1.5-3-2.6-1.5-5,6.8-9.9,13.5-14.9,20.3l2.6,1.5c3.2-6.2,6.4-12.5,9.6-18.7.9-1.7-1.5-3.1-2.6-1.5-3.7,5.4-7.4,10.7-11,16.1l2.6,1.5c2.4-5.3,5.3-10.4,8.7-15.2l-2.6-1.5c-1.8,2.6-3.6,5.2-5.5,7.8s-3.1,4.9-5.6,6.2l2.2,1.7c1.3-5.1,2.7-10.3,4-15.4s-1.9-2.7-2.7-1.2c-2.5,4.7-4.4,9.7-5.6,14.9s1.8,2.6,2.7,1.2c3.3-5.3,6.4-10.7,9.3-16.2s-1.6-3.2-2.6-1.5c-3.1,5.1-6.3,10.2-9.5,15.2l2.8.8c-.3-2.1-.3-4.3.1-6.4h-2.9c1,3.3,2.2,6.6,3.7,9.7s4,6.2,3.3,9.5l2.5-.7c-5.6-5.4-10.1-11.8-13-19l-2.5,1.5c2.8,2.9,5.4,6,7.9,9.1s5.1,6.3,6.2,10l1.8-1.8c-2-.8-3.7-2.3-5.3-3.7s-3.4-3.1-5-4.7c-3.2-3.2-6.3-6.7-9.2-10.2l-1.8,2.4c8.2,4.7,14.8,11.8,18.8,20.4l2.1-2.1c-3.3-1.8-5.9-4.5-8.6-7s-2.7-2.6-4.2-3.7-2.9-2.3-4.8-2.4-1.7,1-1.4,1.9c1.7,5.6,6.6,9.2,11.8,11.2,6.5,2.6,13.7,2.5,20.3,4.6v-2.9c-9.1,2.1-18.8,0-26.4-5.5l-1.2,2.7c8.3,1.6,16.5,3.5,24.7,5.6l.4-2.9c-9.4.1-17.9-4.3-27-5.9s-2.6,2.2-.8,2.9c3.6,1.4,7.7,1.5,11.4,2s8.2.8,12.3,1.1l-.4-2.9c-2.5.3-5.1-.5-7.4-1.5s-4.1-1.9-6-3.1c-3.8-2.2-7.2-5.1-9.5-8.9l-1.7,2.2c6,1.4,11.4,4.4,15.8,8.7l2.1-2.1c-3.5-2.7-6.6-5.9-9.2-9.4s-2.5-3.5-3.3-5.5-1.8-4.2-1-5.7,3.6-1.6,5.1-1.6,4.2.3,6.3.7c4.2.8,8.3,1.7,12.5,1.1s1.4-2.7,0-2.9c-6.3-1-12.7-2.1-19-3.1l-.8,2.9c4.9.7,9.7,1.4,14.6,2.1v-2.9c-3.3,1.4-7,1-10-1s-1.7-.1-2.1.5c-1.9,3.5-3.4,7.2-4.5,11.1s-.9,3.7-1.3,5.6-.9,4,1.4,4.3,3.2-1.7,4.4-2.9,3-3.1,4.5-4.6c2.6-2.7,5.2-6.1,8.9-7.3l-1.7-2.2c-1.9,4.4-3.8,8.9-5.6,13.4s-1.7,4.5-2.5,6.8-1.1,4.2-.5,6.4,1.4,1.5,2.2.9c2.6-2,4.8-4.3,7-6.6s5-5.3,7.5-8c5-5.3,10-10.7,15-16s-.6-3.3-2.1-2.1c-11.1,8.9-20.5,19.8-27.8,32-.9,1.5,1.1,2.9,2.4,1.8,5.1-4.6,9.3-9.9,13.9-15s9.6-9.9,14.8-14.4c1.3-1.1-.4-3.4-1.8-2.4-5.8,4.3-10.8,9.4-15.4,14.9-2.3,2.7-4.4,5.5-6.5,8.4s-4.1,6-5.1,9.6,1.5,2.7,2.5,1.5c8.9-11,17.8-22,28.1-31.7l-2.1-2.1c-9.5,11.3-18.9,22.9-24.7,36.6-.7,1.7,1.5,3.2,2.6,1.5,8.2-12.1,17.2-23.6,27-34.5,1.3-1.4-.7-3.4-2.1-2.1-10.3,9-17.9,20.5-25.3,31.9l2.6,1.5c5.2-8.1,10.9-15.9,17.1-23.4,1.2-1.5-.8-3.6-2.1-2.1-6.4,6.9-11.4,15-14.6,23.8-.5,1.4,1.5,2.6,2.5,1.5,9.9-11.4,19.7-22.8,29.6-34.3,1.1-1.3-.3-3.2-1.8-2.4-4.9,2.7-8.8,6.9-12.4,11s-7,8.8-9.9,13.6,1.1,3,2.4,1.8c7.9-7.7,15.7-15.4,23.6-23,1-1,0-3-1.5-2.5-9.8,3.6-18.2,10.6-23.6,19.6s1.1,2.8,2.4,1.8c4-3.1,7.9-6.2,12.1-9.1s4.1-2.7,6.2-4,4.2-2.3,6.6-2.4l-1.3-2.3c-4.4,6.3-9,12.7-12.2,19.8s-3.8,7.8-.6,9,3.3-.6,4.5-1.4,2.6-2.2,3.6-3.6-.8-2.8-2.1-2.1c-4,2.4-7.9,5-11.7,7.8l1.8,2.4c3.8-3.8,7.6-7.6,11.3-11.4s-.7-3.4-2.1-2.1c-4.5,4.2-8.9,8.4-13.4,12.7l2.4,1.8c4.9-6.7,9.9-13.4,15.1-19.9s-.3-3.4-1.8-2.4c-6.8,4.9-10.8,12.8-17.5,17.8l2.1,2.1c5.2-8.9,11.2-17.2,17.2-25.6s-1.1-2.9-2.4-1.8c-8.4,7.2-14.1,16.9-19.5,26.3l2.6,1.5c5.8-10.8,13-20.8,20.2-30.7s-1.2-3-2.4-1.8c-9.5,9.4-16.7,20.9-24.2,31.9l2.6,1.5c5.7-10.8,12.7-21,19.6-31,1-1.4-1.2-3-2.4-1.8-9,9.2-15.5,20.4-21.9,31.5l2.6,1.5c5.5-9.9,11-19.9,16.4-29.8s-1.1-3.1-2.4-1.8c-5.8,6-10.7,12.9-15.6,19.7l2.6,1.5c3.2-5.7,7.2-10.9,11.9-15.5l-2.4-1.8c-2.5,4.7-4.2,9.7-5,15s2.6,2.7,2.9.8h0Z"/>
  <path class="st3" d="M39.1,65.3c3.7,1.7,7.4,3.4,11.3,4.6s8.1,1.5,12.2,1.7c8.7.5,17.4,1,26.1,1.6l-.8-2.8c-.7.4-1.3.7-2.1.8l.8,2.8c1.1-.5,2.5-.2,3.7,0s3.2.4,4.8.5c3,.2,6.1.3,9.2.3,6.1,0,12.3-.6,18.3-1.4s12.1-1.9,18.2-3.1,5.9-1.2,8.8-1.8c2.1-.4,5.7-1.2,4.8-4.2s-1.3-1.7-2.5-1.8-3.2,0-4.8.1c-3.1,0-6.2.2-9.2.3-6.3.2-12.7.3-19,.5s-6.3.2-9.5.3-6.1.2-9.1-.3-5.8-1.3-8.7-1.6-6.2-.5-9.3-.6c-14-.5-28.1-.6-42.1-.2-.7,0-1.6.7-1.5,1.5.3,2.5,2.3,3.6,4.6,4.1s6.1,1.1,9.2,1.5c6.3.9,12.6,1.5,19,1.9,12.7.7,25.4.5,38.1-.2,7.2-.4,14.4-1,21.6-1.7,1.9-.2,1.9-3.2,0-3-23.8,2.3-47.9,3.6-71.8.9-3.4-.4-6.8-.8-10.2-1.4s-3.2-.5-4.8-.8-2.6-.4-2.7-1.3l-1.5,1.5c11.9-.4,23.8-.4,35.7,0,5.9.2,11.9,0,17.7,1.1,2.7.5,5.4,1.2,8.1,1.5s5.8.2,8.7,0c12-.3,24-.7,36-1,1.5,0,3,0,4.5-.1s.8,0,.9,0v-.3c-.2-.3-.3-.4-.6-.1-.7,0-1.5.3-2.2.5-2.9.6-5.7,1.2-8.6,1.8-5.7,1.2-11.5,2.2-17.3,3s-12.9,1.5-19.4,1.5c-3.3,0-6.6-.1-9.9-.4s-6-1.2-8.8,0-.7,3,.8,2.8,2.5-.5,3.6-1.2.7-2.7-.8-2.8c-8.4-.5-16.8-1-25.2-1.5s-8-.4-12-1.5-7.4-2.7-11-4.4-3.3,1.8-1.5,2.6h0Z"/>
  <path class="st3" d="M51.7,66.3c8.2,1.3,16.5,2.2,24.8,2.6s2-2.1.8-2.8c-9.4-5.7-20.4-1.6-30.6-3.3l-.4,2.9c16.2,1.1,32.6,0,48.6,3.1,1.9.4,2.7-2.4.8-2.9-6.4-1.6-12.9-2.7-19.4-3.4v3c6,0,12,.2,18,.8s5.9.7,8.8,1.4,4.9,1.2,6.7,3l-.2-1.8c-.3.5-1.3.3-1.8.3-1.1,0-2.1-.3-3.2-.5-2.3-.3-4.6-.7-6.8-1-4.6-.7-9.1-1.4-13.7-2.1s-2.7,2.5-.8,2.9c12.5,2.7,25.4,5.2,38.3,3.6,1.9-.2,1.9-2.8,0-3-7-.7-14-1.4-21-2.2s-13.5-1.2-20.3,0-1.4,2.7,0,2.9c9.4,1.6,18.7,3.2,28.1,4.8s2.7-2.4.8-2.9c-10.5-2.5-21.1-5-31.6-7.4-1.9-.4-2.7,2.4-.8,2.9,15.9,4.4,32.9,2.8,49.1,2.3,4.9-.1,9.7-.3,14.6-.4s1.9-2.9,0-3c-7.7-.2-15.3-.3-22.9,1.2s-1.1,2.8.4,2.9c10.1,1.3,20.5.5,30.3-2.1,1.3-.4,1.5-2.7,0-2.9-2.3-.3-4.5-.3-6.8,0s-1.2,2.9.4,2.9,3.2-.2,4.7-.8,1.5-3-.4-2.9c-30.1,1.7-60.5,3.4-90.5-1-3.7-.5-7.3-1.3-10.9-1.9s-3-.3-4.2.7-1.6,2.6-.7,4c1.7,2.7,6.3,3.3,9.1,3.8,3.7.6,7.4,1.1,11.2,1.6,15,1.9,30.1,4.4,45.3,4.5s32.8-2.8,48.2-8.2c1.8-.6,1-3.5-.8-2.9-13.1,4.6-26.8,7.4-40.6,8-14.4.6-28.6-1.3-42.8-3.1-7.2-.9-14.4-1.6-21.5-3-1.4-.3-2.8-.6-4.1-1.2s-1.6-.7-1.3-1.1,2.3,0,2.8.2c3.5.7,7,1.3,10.5,1.8,14,2,28.2,2.7,42.3,2.7,16,0,32-.9,48-1.7l-.4-2.9c-1.3.5-2.5.8-3.9.7l.4,2.9c1.7-.3,3.5-.3,5.2,0v-2.9c-9.6,2.6-19.6,3.2-29.5,2l.4,2.9c7.3-1.4,14.7-1.2,22.1-1v-3c-8.4.3-16.8.5-25.2.8-8.1.2-16.1.5-24.2-.2-4.6-.4-9.1-1.2-13.5-2.4l-.8,2.9c10.5,2.5,21.1,5,31.6,7.4l.8-2.9c-9.4-1.6-18.7-3.2-28.1-4.8v2.9c6.6-1.1,13.3-.4,19.9.2s13.7,1.4,20.5,2.1v-3c-12.6,1.5-25.2-.8-37.5-3.5l-.8,2.9c5.4.8,10.8,1.6,16.1,2.5s5.1.8,7.7,1.2,3.9,0,5.1-1.7.2-1.4-.2-1.8c-1.8-1.9-4.3-2.9-6.8-3.5s-6.3-1.2-9.4-1.6c-6.4-.7-12.9-.8-19.4-.9-2,0-1.9,2.8,0,3,6.3.6,12.5,1.7,18.6,3.3l.8-2.9c-16.3-3.1-32.9-2.1-49.4-3.2-1.7-.1-2.1,2.7-.4,2.9,5.4.9,10.8.3,16.2.1,4.7,0,9.6.3,13.7,2.8l.8-2.8c-8-.4-16.1-1.3-24-2.5s-2.7,2.6-.8,2.9h0Z"/>
  <path class="st2" d="M37.8,58.8c-.5,8.3-.4,16.6.2,24.9s3.1,1.9,3,0c-.6-8.3-.7-16.6-.2-24.9s-2.9-1.9-3,0h0Z"/>
  <path class="st2" d="M40.8,66.3c.3-2.2,3.1-2.9,4.9-3.4,2.8-.8,5.7-1.3,8.7-1.5s2.2-2.1.8-2.8c-3-1.3-6.4-1.4-9.5-1.1s-5.4,1-6.8,3.5,1.1,3,2.4,1.8,3-.8,4.4-.8,3.8,0,5.7,0c3.9,0,7.8,0,11.7-.3,7.6-.4,15.1-1.7,22.2-4.4s1-3.6-.8-2.9c-7.5,2.9-15.3,4.1-23.3,4.4s-8.1.2-12.1.2-7.3-.6-9.9,1.7l2.4,1.8c1-1.7,3.1-1.9,4.9-2s5.1-.2,7.3.7l.8-2.8c-3.6.3-7.3.9-10.8,2s-5.3,2.2-5.7,5.1,2.6,2.7,2.9.8h0Z"/>
  <path class="st2" d="M37.3,65.6c0,4.4.3,8.7.6,13.1s.7,1.5,1.5,1.5,1.6-.7,1.5-1.5c-.3-4.3-.5-8.7-.6-13.1s-3-1.9-3,0h0Z"/>
  <path class="st2" d="M42.7,82.8c.1-2.6-.8-5.1-1.3-7.7s-.9-5.1-1.1-7.7-.7-1.5-1.5-1.5-1.6.7-1.5,1.5c.2,2.6.5,5.3,1,7.9s1.4,4.9,1.3,7.5,2.9,1.9,3,0h0Z"/>
  <path class="st2" d="M155.1,84.4c-.1-2.6.4-5,.7-7.6s.5-4.5.5-6.8c0-4.7-.9-9.4-2.5-13.8s-3.5-1-2.9.8c1.5,4.3,2.4,8.8,2.4,13.4,0,4.7-1.4,9.2-1.2,13.9s3.1,1.9,3,0h0Z"/>
  <path class="st2" d="M141.8,61c4.4-1.3,9.1,0,12.1,3.5l2.1-2.1c-1.7-1.9-3.6-3.8-6.1-4.5s-5.1-.4-6,2-.2,1.9.5,2.6,2,.5,3.2.5c2.5,0,4.6,2.2,6.1,4l2.1-2.1c-3.6-3.9-8.8-5.9-14.1-5.5s-1.9,1.2-1.3,2.3c1.3,2.3,4.2,1.7,6.4,2.2s4.8,2.2,6.5,4.3l2.1-2.1c-3.6-4.5-10.5-4.7-15.7-5.7-6.9-1.3-13.8-2.5-20.7-3.8s-2.7,2.5-.8,2.9c6.6,1.2,13.2,2.4,19.8,3.6s6,1,9,1.7,4.8,1.4,6.4,3.4,3.3-.6,2.1-2.1-3.6-3.5-6-4.5-2.3-.8-3.6-.9-2.5.1-2.9-.5l-1.3,2.3c4.5-.4,8.9,1.3,11.9,4.6s3.4-.7,2.1-2.1c-2.2-2.5-5.1-5.1-8.6-4.8s-1,0-1,.1c.2.9.4,1.1.7.7h.2c1.1-.2,1.8-.3,2.8.2,1.7.7,3,2.2,4.2,3.5s3.4-.7,2.1-2.1c-3.6-4.2-9.7-6-15-4.3s-1.1,3.5.8,2.9h0Z"/>
  <path class="st2" d="M63.7,43.8c-5.2,13.1-6.5,27.5-3.9,41.3.4,1.9,3.3,1.1,2.9-.8-2.5-13.3-1.1-27.1,3.9-39.7s-2.2-2.6-2.9-.8h0Z"/>
  <path class="st2" d="M63.4,94.9c1.9,0,1.9-3,0-3s-1.9,3,0,3h0Z"/>
  <path class="st2" d="M67.6,43.9c1.9,0,1.9-3,0-3s-1.9,3,0,3h0Z"/>
  <g>
    <path class="st5" d="M62.2,99.3c-3.6.8-6.5.5-8.9-1-2.4-1.5-4-4.1-4.9-7.6l4.7-1.1c.5,2.3,1.5,3.9,3,4.9,1.4,1,3.2,1.2,5.2.8,2-.5,3.4-1.5,4.2-3,.8-1.5.9-3.4.4-5.7l-5.1-21.5,4.7-1.1,5.1,21.5c.9,3.6.5,6.6-1,9-1.5,2.4-4,4.1-7.5,4.9ZM53.5,71.3l-1-4.3,10.6-2.5,1,4.3-10.6,2.5Z"/>
    <path class="st4" d="M87.8,93.2c-2.5.6-4.7.3-6.4-.9-1.8-1.2-3-3.1-3.6-5.9l-3.8-16,4.8-1.1,3.8,16c.3,1.4,1,2.4,1.9,2.9,1,.6,2.2.7,3.6.3,1.8-.4,3-1.3,3.6-2.6.6-1.3.6-3.3,0-5.9l2.8,6.2-1.6.4c0,1.7-.4,3.2-1.3,4.3-.9,1.1-2.2,1.9-3.8,2.3ZM92.7,84.4l-4.1-17.3,4.8-1.1,3.8,16-4.5,2.5ZM94.8,91.3l-1.8-5.7-1-4.2,4.8-1.1,1.3,5.4,3.4-.3.9,3.9-7.7,2.1Z"/>
    <path class="st4" d="M107.6,88.1l-5.7-24.2,4.4-1,1.7,5,4.5,19.1-4.8,1.1ZM122.4,84.5l-3.7-15.7c-.3-1.5-1-2.5-1.9-3.1-.9-.6-2.1-.8-3.5-.4-3.8.9-5.2,3.6-4.1,8.1l-2.9-5.9,1.9-.4c-.2-1.7,0-3,.9-4.1.9-1,2.3-1.8,4.3-2.3,2.6-.6,4.7-.3,6.5.9,1.8,1.2,3,3.2,3.7,6.1l3.7,15.7-4.8,1.1Z"/>
    <path class="st5" d="M134.7,81.6l-8.1-34.2,4.8-1.1,8.1,34.2-4.8,1.1ZM136,71.6l-1-4.3,2.7-.7c2-.5,3.6-1.2,4.7-2.2,1.1-1,1.9-2.4,2.2-4.1.4-1.7.4-4,.1-6.6l5-1.2c.6,5.2,0,9.3-1.6,12.3-1.6,3-4.4,5-8.3,5.9l-3.9.9ZM151.1,77.7l-9.7-10.1,4.1-3,11.5,11.7-6,1.4Z"/>
  </g>
  <g>
    <path d="M183.9,98.6c-3.7,0-6.5-1-8.5-3.1s-3-4.9-3-8.6h4.9c0,2.3.6,4.2,1.7,5.5s2.8,1.9,4.9,1.9,3.7-.6,4.8-1.9,1.7-3.1,1.7-5.5v-22.1h4.9v22.1c0,3.7-1,6.5-3,8.6s-4.8,3-8.4,3ZM181.9,69.3v-4.5h10.9v4.5h-10.9Z"/>
    <path d="M212.6,98.6c-3.4,0-6.1-1.1-8-3.4s-2.9-5.4-2.9-9.5,1-7.3,2.9-9.5,4.6-3.4,8-3.4,6.1,1.1,8,3.4,2.8,5.4,2.8,9.5-.9,7.3-2.8,9.5-4.6,3.4-8,3.4ZM212.6,94.2c1.8,0,3.2-.7,4.2-2.2s1.5-3.5,1.5-6.2-.5-4.8-1.5-6.2-2.4-2.2-4.2-2.2-3.2.7-4.2,2.2-1.5,3.5-1.5,6.2.5,4.8,1.5,6.2,2.4,2.2,4.2,2.2Z"/>
    <path d="M238.3,98.6c-2.6,0-4.6-.8-6.1-2.3s-2.1-3.7-2.1-6.6v-16.4h5v16.4c0,1.4.4,2.5,1.2,3.3s2,1.2,3.4,1.2,3.2-.6,4.1-1.7,1.4-3.1,1.4-5.8l1.3,6.7h-1.6c-.4,1.7-1.2,3-2.3,3.9s-2.5,1.4-4.2,1.4ZM245.2,91.1v-17.8h5v16.4l-5,1.4ZM245.6,98.4l-.4-6v-4.4h5v5.6l3.4.5v4l-8,.2Z"/>
    <path d="M256.7,98.2v-4.4h16.6v4.4h-16.6ZM257.6,77.7v-4.4h8.3l.5,4.4h-8.8ZM262.2,98.2v-24.8h4l.9,7.1v17.7h-5ZM267.2,87.5l-1.5-7.8h1.9c.3-4.6,2.6-6.8,6.8-6.8s4.4.7,5.6,2.2,1.7,3.8,1.7,7.1h-4.9c0-1.8-.3-3.1-.8-3.9s-1.4-1.2-2.6-1.2c-2.1,0-3.7.9-4.7,2.7s-1.6,4.4-1.6,7.7Z"/>
    <path d="M286.8,98.2v-24.8h4.5l.5,5.2v19.6h-5ZM302.1,98.2v-16.2c0-1.5-.4-2.7-1.2-3.5s-1.9-1.2-3.3-1.2c-3.9,0-5.9,2.3-5.9,6.9l-1.5-6.4h1.9c.1-1.7.8-2.9,1.8-3.7s2.7-1.2,4.7-1.2,4.7.8,6.1,2.4,2.2,3.8,2.2,6.8v16.2h-5Z"/>
    <path d="M321.4,98.6c-2.6,0-4.6-.6-6-1.9s-2.1-3-2.1-5.3,1-4.6,2.9-6,4.7-2.1,8.3-2.1,2.8,0,4,.3,2.2.4,3.1.8l-1,3.4c-1-.2-2.1-.4-3.1-.4s-2,0-3.1,0c-4.3,0-6.5,1.3-6.5,3.9s.4,1.9,1.1,2.5,1.8.9,3.2.9,2.8-.3,3.9-.8,1.8-1.2,2.3-2,.8-1.7.8-2.6v-2.7l1.5,6.4h-2l.8-.8c0,1.4-.3,2.6-1,3.6s-1.6,1.7-2.8,2.2-2.6.7-4.3.7ZM330.2,98.4l-.3-7.4-.7-2.1v-6.4c0-1.7-.6-2.9-1.7-3.6s-2.9-1.2-5.2-1.3l-6-.2.5-4.4h5c4.1.1,7.2,1,9.2,2.7s3,4.2,3,7.5v10.4l4.2.5v4l-8,.2Z"/>
    <path d="M341.5,67.4v-4.4h7.7v4.4h-7.7ZM356.9,98.6c-2.9,0-5-.8-6.2-2.3s-1.9-4.1-1.9-7.5v-25.8h5v25.5c0,1.3.1,2.4.4,3.2s.7,1.4,1.5,1.8,1.8.6,3.2.6,3-.3,5-.9l.6,4.4c-1.3.3-2.5.6-3.6.8s-2.4.2-3.8.2Z"/>
  </g>
</svg>