<?xml version="1.0" encoding="UTF-8"?>
<svg id="Layer_1" xmlns="http://www.w3.org/2000/svg" version="1.1" viewBox="0 0 595.3 210">
  <!-- Generator: Adobe Illustrator 29.3.1, SVG Export Plug-In . SVG Version: 2.1.0 Build 151)  -->
  <defs>
    <style>
      .st0 {
        fill: #f7941d;
      }

      .st1 {
        fill: #fff;
      }

      .st2 {
        fill: #231f20;
      }

      .st3 {
        fill: #fbb040;
      }
    </style>
  </defs>
  <path class="st3" d="M89.9,144.6c35.2,17.7,69.1,13.7,75.6-9,6.6-22.7-16.6-55.5-51.9-73.2-1-.5-1.8-.9-2.5-1.2-29.2-13.6-67.4-8.7-73.1,10.2-6,19.6,21.6,58,51.9,73.2h0Z"/>
  <path class="st3" d="M146.9,157.3c8.4,0,27.4,2.2,43-14.2,4.9-5.1,13.3-14.1,13-25-.6-20.2-30.8-38.3-56.8-38.1-26,.2-5.8.2-6.9.4-22.8,2.7-49.3,21.2-49.2,38.8,0,19.6,33,38.3,56.8,38.1h.1Z"/>
  <path class="st3" d="M148,82.8"/>
  <path class="st3" d="M169.2,85.1"/>
  <path class="st3" d="M111.1,61.3"/>
  <path class="st3" d="M88.4,54.5"/>
  <path class="st3" d="M169.6,86.9"/>
  <path class="st3" d="M184.8,84.7"/>
  <path class="st3" d="M246.9,65.3"/>
  <path class="st3" d="M241.8,77.1"/>
  <path class="st3" d="M115.3,155.9s142,19.7,150.2-81.7c0,0-45.4,13.3-84.2,44.3"/>
  <path class="st3" d="M263.9,74.6c-38.3,24.7-17.5-50.6-17.5-50.6"/>
  <path class="st3" d="M280.8,120.4s-35.1,3.1-18.7-36.2"/>
  <path class="st1" d="M161.6,82.8"/>
  <ellipse class="st1" cx="73.7" cy="81.9" rx="8.4" ry="11" transform="translate(-.7 .7) rotate(-.5)"/>
  <path class="st0" d="M111.4,90.3c1.1,1.7,2.6,3.7,2.6,5.9s-1.7,4.1-2.9,5.8c-2.6,3.7-5.9,6.9-9.6,9.5s-1.6,2.2-.9,3.4,2.3,1.7,3.4.9c4.7-3.2,8.7-7.3,11.9-12,3.2-4.7,3.1-4.9,3.1-7.8s-1.6-5.7-3.2-8.2-6.1-.2-4.3,2.5h-.1Z"/>
  <path class="st0" d="M122.7,92.9c2.4,3.5,1.7,8-.3,11.5s-6.3,6.9-9.9,9.7-1.6,2.2-.9,3.4,2.3,1.7,3.4.9c4.6-3.4,9.4-7,12.1-12.1s3.2-11.2,0-15.9-2.2-1.6-3.4-.9-1.7,2.3-.9,3.4h-.1Z"/>
  <path class="st0" d="M245.6,76.9c-6.3-13.2-6.2-29.2-.5-42.7,1.7-3.9,3.8-7.6,6.4-10.9l-3.9.5c9.7,11.1,14.6,25.8,14.4,40.5-.2,14.7-.4,7.3-1.2,10.9s-.9,3.6-1.4,5.3-.3,4.5,1.2,6.4,2.8,2.7,4.1,4,2.8,2.9,4.2,4.3c2.6,2.9,5.1,5.9,7.4,9,5.2,7.3,9.5,15.2,12.7,23.5l1.7-3.1c-12.7,3.5-27-3.5-32.3-15.5s-2.3-1.5-3.4-.9-1.5,2.2-.9,3.4c4.9,10.9,16.3,18.1,28.1,18.8s6.7-.2,9.9-1.1,2.2-1.8,1.7-3.1c-5.8-15.3-15-29.2-26.9-40.5-.9-.9-3.1-2.1-2.9-3.6s1-3.7,1.4-5.6c.8-3.8,1.3-7.6,1.4-11.5.3-7.6-.7-15.3-3.1-22.5-2.7-8.3-6.9-16-12.7-22.6s-3-.7-3.9.5c-9.8,12.9-13.3,29.9-10.3,45.7.9,4.5,2.4,8.8,4.4,13s2.3,1.5,3.4.9,1.5-2.2.9-3.4h0v.2Z"/>
  <path class="st0" d="M238.7,82.6c-11.9,9.3-27.3,14-42.4,13.6-14.7-.4-28.1-6.4-40.6-13.8-12.5-7.4-24.2-16.1-37.4-22.2-6.5-3-13.3-5.4-20.4-6.7s-18.1-1.3-27-.9-8.3.6-12.3,1.8-7.7,3.4-10.9,6.2-5.8,5.9-8.3,9.2-4.4,7.5-4.8,11.9.5,8.4,1.5,12.4,2.2,7,3.8,10.4c3,6.6,7.1,12.7,11.8,18.1,10,11.4,23,19.9,37.1,25.3,14.1,5.4,33.7,8.8,51,9.6,17.3.8,36.8.1,54.6-3.5,17.8-3.6,16.5-4.4,23.8-8.9,7.3-4.5,12.9-10.2,18.3-16.4s5.1-6.3,7.5-9.5.2-2.8-.9-3.4-2.6-.2-3.4.9c-4.8,6.3-9.8,12.6-15.8,17.8-5.9,5.3-12.8,9.4-20.3,11.9-8.1,2.7-16.5,4.1-25,5-9.1,1-18.2,1.3-27.3,1.3-16.8,0-33.8-1.4-50.1-6-14.5-4-28.3-10.9-39.4-21.1-10.3-9.4-18.2-21.5-21.3-35.2-3.1-13.7-1.4-8-.2-11.9s3.8-6.8,6.3-9.7,5.2-5.8,8.6-7.7,7.2-2.9,11.1-3.4,8.2-.5,12.3-.6,9,0,13.5.3c7.2.6,14.2,2.5,20.9,5.4,13,5.4,24.5,13.8,36.3,21.1,12.1,7.4,25.1,14.3,39.3,16.3,15.2,2.2,31-.7,44.4-8.2s6.4-3.9,9.4-6.3.9-2.7,0-3.5-2.5-.8-3.5,0h0l-.3.2Z"/>
  <g>
    <path class="st2" d="M146.1,75.8h11s.2,38.1.2,38.1c0,6.3-.3,11-1,14.1s-2.4,5.6-4.9,7.5-6.2,2.8-11,2.9c-2.5,0-5.4-.3-8.8-1v-8.4c2.2.6,4.3.8,6.3.8s4.1-.4,5.3-1.3c1.2-.8,2-2.1,2.5-3.7.5-1.7.7-5.2.6-10.7l-.2-38.2h0Z"/>
    <path class="st2" d="M169,91.6h10.1s.2,28.8.2,28.8c0,4,.4,6.7,1.1,8.1s2.3,2,4.7,2,5.1-1.3,6.3-3.7c1.2-2.4,1.7-6.9,1.7-13.5v-21.9c-.1,0,10,0,10,0l.3,45.3h-9.3s0-6.8,0-6.8c-2.6,5.3-6.7,8-12.4,8.1-2.9,0-5.3-.5-7.2-1.6-1.9-1.1-3.2-2.7-4-4.8-.8-2.1-1.3-5.7-1.3-10.9l-.2-29.1h0Z"/>
    <path class="st2" d="M215,91.3h9.3s0,6.9,0,6.9c2.2-5.4,6.2-8.2,12.1-8.2s6,.7,8,2.1c2,1.5,3.3,3.2,3.9,5.3.6,2,.9,5.3.9,9.7l.2,29.3h-10.1s-.2-28.7-.2-28.7c0-4-.4-6.6-1.2-8.1-.8-1.4-2.4-2.1-4.8-2.1s-4.5.9-5.9,2.8c-1.4,1.8-2.1,5.4-2,10.8v25.4c.1,0-10,0-10,0l-.3-45.3h0Z"/>
    <path class="st2" d="M260.6,75.1h10.1s.2,36.2.2,36.2l15.7-20.4h10s-12.6,15.7-12.6,15.7l14.2,29.7h-10.9s-9.9-22.7-9.9-22.7l-6.4,8.4v14.4c0,0-10,0-10,0l-.4-61.4h0Z"/>
    <path class="st2" d="M328.8,74.7h11s.2,38.1.2,38.1c0,6.3-.3,11-1,14.1s-2.4,5.6-4.9,7.5-6.2,2.8-11,2.9c-2.5,0-5.4-.3-8.8-1v-8.4c2.2.6,4.3.8,6.3.8s4.1-.4,5.3-1.3c1.2-.8,2-2.1,2.5-3.7.5-1.7.7-5.2.6-10.7l-.2-38.2h0Z"/>
    <path class="st2" d="M388.3,112.6c0,16.2-6.3,24.3-19.3,24.4-6,0-10.6-1.9-14.1-5.7-3.4-3.9-5.2-9.9-5.2-17.9,0-15.9,6.4-23.9,19.3-23.9,5.9,0,10.6,1.8,14,5.7s5.3,9.7,5.2,17.5h.1ZM377.5,113.2c0-6.4-.9-10.8-2.4-13.1-1.6-2.4-3.6-3.5-6.2-3.5-5.7,0-8.5,5.6-8.5,16.8,0,5.7.8,9.9,2.1,12.6s3.5,4.1,6.6,4c3,0,5.2-1.4,6.5-4.2s1.9-7,1.9-12.6h-.1Z"/>
    <path class="st2" d="M397.4,90.3h10.1s.2,28.8.2,28.8c0,4,.4,6.7,1.1,8.1s2.3,2,4.7,2,5.1-1.3,6.3-3.7,1.7-6.9,1.7-13.5v-21.9c-.1,0,10,0,10,0l.3,45.3h-9.3s0-6.8,0-6.8c-2.6,5.3-6.7,8-12.4,8.1-2.9,0-5.3-.5-7.2-1.6s-3.2-2.7-4-4.8c-.8-2.1-1.3-5.7-1.3-10.9l-.2-29.1h0Z"/>
    <path class="st2" d="M443.5,90.1h8.9s0,10.1,0,10.1c2.7-7.4,6.7-11.2,12.2-11.2s1.1,0,1.9.1v9.8c-.8,0-1.4-.1-2-.1-7.2,0-10.8,4.6-10.7,13.6v23.1c.1,0-10,0-10,0l-.3-45.3h0Z"/>
    <path class="st2" d="M470.5,89.9h9.3s0,6.9,0,6.9c2.2-5.4,6.2-8.2,12.1-8.2s6,.7,8,2.1c2,1.5,3.3,3.2,3.9,5.2s.8,5.3.9,9.7l.2,29.3h-10.1s-.2-28.7-.2-28.7c0-4-.4-6.6-1.2-8.1-.8-1.4-2.4-2.1-4.8-2.1s-4.5.9-5.9,2.8c-1.4,1.8-2.1,5.4-2,10.8v25.4c.1,0-10,0-10,0l-.3-45.3v.2Z"/>
    <path class="st2" d="M525.4,102.5l-9.8-1c.6-4.1,2.6-7.2,5.9-9.5,3.4-2.3,7.5-3.4,12.4-3.5,4.4,0,7.9.7,10.6,2.4,2.6,1.6,4.3,3.5,5,5.8.7,2.2,1.1,5.6,1.1,10.2v15.5c.1,6.3.4,10.4,1,12.5h-9.6c-.4-1.6-.7-4.1-.7-7.5-3,5.8-7.6,8.8-13.7,8.8-4.1,0-7.5-1.1-10-3.4s-3.8-5.5-3.8-9.6c0-4.9,1.8-8.9,5.4-11.8s10-4.4,19-4.4h2.1s0-1.8,0-1.8c0-3.2-.6-5.7-1.7-7.3-1.1-1.6-2.9-2.4-5.7-2.4-4.4,0-7,2.4-7.9,7.2h.3ZM540.6,112.8c-1.3-.1-2.3-.2-3-.2-8.8,0-13.1,3.3-13.1,9.7s2.2,7,6.6,6.9c2.5,0,4.8-1.3,6.7-3.8,1.9-2.5,2.8-6,2.8-10.4v-2.2Z"/>
    <path class="st2" d="M561.8,73.4h10.1s.4,61.3.4,61.3h-10.1s-.4-61.3-.4-61.3Z"/>
  </g>
</svg>