<?xml version="1.0" encoding="UTF-8"?>
<svg id="Layer_1" xmlns="http://www.w3.org/2000/svg" version="1.1" viewBox="0 0 595.3 841.9">
  <!-- Generator: Adobe Illustrator 29.3.1, SVG Export Plug-In . SVG Version: 2.1.0 Build 151)  -->
  <defs>
    <style>
      .st0 {
        fill: #231f20;
      }

      .st1 {
        fill: #fff;
      }

      .st2 {
        fill: #f7941d;
      }

      .st3 {
        fill: #fbb040;
      }
    </style>
  </defs>
  <path class="st3" d="M88.5,467.5c35,18.2,68.9,14.6,75.7-8,6.9-22.6-15.9-55.7-50.9-73.9-1-.5-1.8-.9-2.5-1.3-29-14-67.2-9.6-73.3,9.2-6.2,19.5,20.8,58.2,50.9,73.9Z"/>
  <path class="st3" d="M145.4,480.9c8.4,0,27.4,2.6,43.2-13.6,5-5.1,13.5-13.8,13.3-24.8-.4-20.2-30.3-38.8-56.3-38.8s-5.8.1-6.9.3c-22.9,2.5-49.5,20.6-49.7,38.2-.2,19.6,32.5,38.8,56.3,38.8Z"/>
  <path class="st3" d="M147.5,406.4"/>
  <path class="st3" d="M168.7,409"/>
  <path class="st3" d="M110.9,384.4"/>
  <path class="st3" d="M88.3,377.3"/>
  <path class="st3" d="M169,410.7"/>
  <path class="st3" d="M184.3,408.8"/>
  <path class="st3" d="M246.5,390.3"/>
  <path class="st3" d="M241.4,401.9"/>
  <path class="st3" d="M113.8,479s141.7,21.6,151.2-79.7c0,0-45.6,12.7-84.8,43.2"/>
  <path class="st3" d="M263.5,399.7c-38.6,24.2-16.8-50.8-16.8-50.8"/>
  <path class="st3" d="M279.7,445.7s-35.2,2.6-18.2-36.4"/>
  <path class="st1" d="M161.1,406.5"/>
  <ellipse class="st1" cx="73" cy="404.7" rx="11" ry="8.4" transform="translate(-332 476.2) rotate(-89.8)"/>
  <path class="st2" d="M110.8,413.5c1.1,1.7,2.6,3.8,2.4,5.9s-1.8,4.2-3,5.8c-2.6,3.6-6,6.8-9.7,9.2s-1.6,2.2-.9,3.4,2.3,1.7,3.4.9c4.7-3.1,8.7-7.1,12-11.7s3.3-4.9,3.3-7.9-1.6-5.8-3.1-8.2-6.1-.2-4.3,2.5h0Z"/>
  <path class="st2" d="M122,416.3c2.3,3.5,1.5,8.1-.6,11.5s-6.4,6.8-10.1,9.5-1.6,2.2-.9,3.4,2.3,1.7,3.4.9c4.6-3.3,9.5-6.9,12.3-12s3.3-11.1.2-15.9-6.1-.2-4.3,2.5h0Z"/>
  <path class="st2" d="M245.1,401.8c-6-13.2-5.9-29.2,0-42.4s3.8-7.4,6.3-10.6h-3.5c9.4,11.2,14.2,25.9,13.8,40.5s-.5,7.3-1.3,10.9-3.2,8-.6,11.5,2.8,2.9,4.2,4.3,2.7,2.8,4,4.3c2.7,3,5.1,6.1,7.4,9.4,5.1,7.4,9.3,15.3,12.4,23.8l1.7-3.1c-12.8,3.3-27-3.9-32.2-16s-2.4-1.5-3.4-.9-1.4,2.2-.9,3.4c6.1,14.1,23,22.1,37.8,18.3,1.2-.3,2.2-1.8,1.7-3.1-5.7-15.4-14.7-29.5-26.5-41s-2.9-2.1-2.6-3.7,1.1-3.7,1.5-5.5c.9-3.7,1.4-7.6,1.6-11.4.4-7.6-.6-15.3-2.9-22.6s-6.8-16-12.4-22.7-2.8-1-3.5,0c-10.1,12.9-14.1,29.8-11.2,45.9.8,4.6,2.3,8.9,4.2,13.2s2.3,1.5,3.4.9,1.5-2.2.9-3.4h0Z"/>
  <path class="st2" d="M238.7,407c-12.3,9.3-27.6,14-43,13.4s-28-6.8-40.4-14.3-24-16.3-37-22.6-13.2-5.7-20.2-7-18-1.5-26.9-1.3-8.3.4-12.3,1.5-7.8,3.1-11.1,5.9-5.8,5.7-8.3,8.8-4.8,7.4-5.3,11.9.2,8.4,1.2,12.5,2.1,7.1,3.6,10.5c2.9,6.7,6.8,12.8,11.5,18.3,9.8,11.6,22.6,20.2,36.5,25.9,16,6.6,33.3,9.3,50.5,10.4,18.2,1.1,36.8.8,54.7-2.6,8.5-1.6,16.9-4.1,24.3-8.5s13.1-9.9,18.5-16.1,5.1-6.1,7.6-9.2,1-2.5,0-3.5-2.7-1.1-3.5,0c-5,6.3-10.1,12.5-16.1,17.9s-13,9.3-20.6,11.8-16.8,4-25.3,4.8-18.2,1.1-27.3,1c-16.7-.3-33.6-1.8-49.7-6.6-14.4-4.2-28.1-11.2-39.2-21.5-10.2-9.5-18-21.6-21-35.3s-1.3-8-.2-11.9,3.8-6.8,6.3-9.7,5.3-5.7,8.7-7.7,7.2-2.9,11.1-3.3,8.2-.4,12.3-.4,9,0,13.5.4c7.1.7,14.1,2.6,20.6,5.4,12.9,5.6,24.4,14,36.2,21.5s24.7,14.7,38.9,17,31.1,0,44.9-7.2c3.3-1.7,6.4-3.7,9.4-5.9s1.6-2.2.9-3.4-2.3-1.7-3.4-.9h0Z"/>
  <g>
    <path class="st0" d="M145.7,399.3h11c0,0-.3,38.3-.3,38.3,0,6.3-.5,11-1.3,14.1s-2.5,5.5-5.1,7.4c-2.6,1.8-6.2,2.7-11,2.7-2.5,0-5.4-.4-8.8-1.2v-8.4c2.3.6,4.5.9,6.5.9,2.4,0,4.2-.4,5.4-1.2,1.2-.8,2.1-2,2.5-3.7.5-1.7.7-5.2.8-10.7l.3-38.2Z"/>
    <path class="st0" d="M168.3,415.5h10.1c0,0-.2,29-.2,29,0,4,.3,6.7,1,8.1.7,1.4,2.3,2.1,4.7,2.1,3,0,5.1-1.2,6.4-3.6,1.2-2.4,1.9-6.9,1.9-13.5l.2-21.9h10.1c0,0-.3,45.5-.3,45.5h-9.3c0,0,0-6.9,0-6.9-2.7,5.3-6.8,7.9-12.5,7.9-2.9,0-5.3-.6-7.1-1.8-1.8-1.2-3.2-2.8-4-4.9-.8-2.1-1.2-5.8-1.1-10.9l.2-29.1Z"/>
    <path class="st0" d="M214.4,415.8h9.3c0,0,0,7.1,0,7.1,2.3-5.4,6.4-8,12.2-8,3.3,0,6,.8,8,2.3,2,1.5,3.3,3.3,3.8,5.3.5,2.1.8,5.3.7,9.7l-.2,29.3h-10.1c0,0,.2-28.8.2-28.8,0-4-.3-6.6-1.1-8.1-.7-1.4-2.3-2.2-4.8-2.2-2.5,0-4.5.9-5.9,2.7-1.4,1.8-2.2,5.4-2.2,10.8l-.2,25.4h-10.1c0,0,.3-45.5.3-45.5Z"/>
    <path class="st0" d="M260.2,400.2h10.1c0,0-.3,36.4-.3,36.4l16-20.2h10c0,0-12.8,15.6-12.8,15.6l13.8,29.9h-10.9c0,0-9.6-22.9-9.6-22.9l-6.6,8.3v14.4c-.1,0-10.2,0-10.2,0l.5-61.4Z"/>
    <path class="st0" d="M328.4,400.7h11c0,0-.3,38.3-.3,38.3,0,6.3-.5,11-1.3,14.1-.8,3.1-2.5,5.5-5.1,7.4-2.6,1.8-6.2,2.7-11,2.7-2.5,0-5.4-.4-8.8-1.2v-8.4c2.3.6,4.5.9,6.5.9,2.4,0,4.1-.4,5.4-1.2,1.2-.8,2.1-2,2.5-3.7.5-1.7.7-5.2.8-10.7l.3-38.2Z"/>
    <path class="st0" d="M387.3,439.4c-.1,16.2-6.6,24.2-19.6,24.1-6,0-10.6-2-14-6-3.4-3.9-5-9.9-5-18,.1-15.9,6.6-23.7,19.6-23.7,5.9,0,10.5,2,14,5.9,3.4,3.9,5.1,9.8,5,17.6ZM376.6,439.8c0-6.4-.7-10.8-2.2-13.2-1.5-2.4-3.6-3.6-6.2-3.6-5.7,0-8.6,5.5-8.6,16.6,0,5.7.6,9.9,1.9,12.6,1.3,2.7,3.5,4.1,6.5,4.1,3,0,5.2-1.3,6.5-4.1s2.1-6.9,2.1-12.5Z"/>
    <path class="st0" d="M396.7,417.2h10.1c0,0-.2,29-.2,29,0,4,.3,6.7,1,8.1s2.3,2.1,4.7,2.1c3,0,5.1-1.2,6.4-3.6,1.2-2.4,1.9-6.9,1.9-13.5l.2-21.9h10.1c0,0-.3,45.5-.3,45.5h-9.3c0,0,0-6.9,0-6.9-2.7,5.3-6.8,7.9-12.5,7.9-2.9,0-5.3-.6-7.1-1.8-1.8-1.2-3.2-2.8-4-4.9-.8-2.1-1.2-5.8-1.1-10.9l.2-29.1Z"/>
    <path class="st0" d="M442.8,417.5h8.9c0,0,0,10.2,0,10.2,2.8-7.4,6.9-11.1,12.3-11,.5,0,1.1,0,1.8.1v9.8c-.9,0-1.6-.1-2.1-.1-7.2,0-10.9,4.4-11,13.4l-.2,23.1h-10.1c0,0,.3-45.5.3-45.5Z"/>
    <path class="st0" d="M469.9,417.7h9.3c0,0,0,7.1,0,7.1,2.3-5.4,6.4-8,12.2-8,3.3,0,6,.8,8,2.3,2,1.5,3.3,3.3,3.8,5.3.5,2.1.8,5.3.7,9.7l-.2,29.3h-10.1c0,0,.2-28.8.2-28.8,0-4-.3-6.6-1.1-8.1-.7-1.4-2.3-2.2-4.8-2.2-2.5,0-4.5.9-5.9,2.7-1.4,1.8-2.2,5.4-2.2,10.8l-.2,25.4h-10.1c0,0,.3-45.5.3-45.5Z"/>
    <path class="st0" d="M524.6,431l-9.7-1.2c.7-4,2.7-7.2,6.1-9.4,3.4-2.2,7.5-3.3,12.5-3.3,4.4,0,7.9.9,10.5,2.5,2.6,1.7,4.3,3.6,4.9,5.9.7,2.3,1,5.7.9,10.2v15.5c-.2,6.3.1,10.5.7,12.6h-9.6c-.4-1.7-.6-4.2-.6-7.6-3.1,5.8-7.7,8.6-13.8,8.6-4.1,0-7.4-1.2-9.9-3.6-2.5-2.4-3.7-5.6-3.7-9.6,0-4.9,1.9-8.8,5.6-11.7,3.7-2.9,10-4.2,19.1-4.2.5,0,1.2,0,2.1,0v-1.8c0-3.2-.5-5.7-1.5-7.3-1-1.7-2.9-2.5-5.6-2.5-4.4,0-7.1,2.3-8,7ZM539.7,441.5c-1.3-.1-2.3-.2-2.9-.2-8.8,0-13.2,3.1-13.2,9.5,0,4.6,2.1,7,6.5,7,2.5,0,4.8-1.2,6.7-3.7,1.9-2.5,2.9-6,3-10.4v-2.2Z"/>
    <path class="st0" d="M561.4,402.4h10.1c0,0-.5,61.5-.5,61.5h-10.1c0,0,.5-61.5.5-61.5Z"/>
  </g>
</svg>